<?xml version="1.0" standalone="no"?>
<!DOCTYPE svg PUBLIC "-//W3C//DTD SVG 20010904//EN"
 "http://www.w3.org/TR/2001/REC-SVG-20010904/DTD/svg10.dtd">
<svg version="1.0" xmlns="http://www.w3.org/2000/svg"
 width="362.000000pt" height="372.000000pt" viewBox="0 0 362.000000 372.000000"
 preserveAspectRatio="xMidYMid meet">

<g transform="translate(0.000000,372.000000) scale(0.100000,-0.100000)"
fill="#000000" stroke="none">
<path d="M50 3713 c-8 -3 -23 -12 -32 -21 -17 -14 -18 -78 -18 -1081 l1 -1066
33 80 c44 107 61 138 97 179 40 46 69 51 159 26 187 -53 259 -60 348 -38 53
13 104 43 122 71 6 10 15 51 20 90 10 92 16 104 54 124 17 8 39 22 49 31 20
18 22 64 5 92 -10 16 -9 25 5 49 24 41 21 87 -8 125 -33 44 -32 60 11 104 73
76 77 121 15 187 -16 16 -50 61 -75 100 -44 65 -47 73 -41 115 15 115 16 160
5 225 -47 277 -144 420 -358 533 -125 66 -183 82 -287 81 -49 0 -97 -3 -105
-6z m96 -99 c-4 -18 -2 -35 4 -39 5 -3 10 -15 10 -26 0 -13 -7 -19 -24 -19
-34 0 -51 24 -31 43 9 10 11 18 5 22 -14 9 -12 52 3 58 27 9 39 -5 33 -39z
m44 -84 c0 -5 -2 -10 -4 -10 -3 0 -8 5 -11 10 -3 6 -1 10 4 10 6 0 11 -4 11
-10z m208 -28 c-9 -10 -13 -11 -19 0 -5 7 -9 19 -9 26 0 10 4 10 19 0 15 -9
17 -15 9 -26z m-11 -40 c17 -11 -1 -36 -21 -29 -9 4 -16 13 -16 22 0 16 17 20
37 7z m83 -28 c0 -9 -5 -14 -12 -12 -18 6 -21 28 -4 28 9 0 16 -7 16 -16z
m-196 -75 c-3 -5 -10 -7 -15 -3 -5 3 -7 10 -3 15 3 5 10 7 15 3 5 -3 7 -10 3
-15z m158 -63 c13 -12 16 -22 10 -28 -14 -14 -130 -40 -142 -33 -15 9 -12 31
6 46 9 7 20 23 25 36 7 19 13 22 39 17 21 -5 30 -3 31 7 1 8 4 5 6 -6 3 -11
14 -28 25 -39z m128 -222 c0 -2 -7 -4 -15 -4 -8 0 -15 4 -15 10 0 5 7 7 15 4
8 -4 15 -8 15 -10z m-254 -52 c13 -8 26 -120 15 -127 -5 -2 -27 14 -50 37 -32
33 -44 39 -53 30 -16 -16 -28 -15 -28 3 0 40 81 81 116 57z m392 -168 c16 -11
22 -24 20 -42 -4 -36 -18 -37 -56 -3 -50 46 -20 84 36 45z m52 -148 c0 -8 -4
-17 -9 -21 -12 -7 -24 12 -16 25 9 15 25 12 25 -4z m60 -105 c0 -12 -20 -25
-27 -18 -7 7 6 27 18 27 5 0 9 -4 9 -9z m-50 -231 c0 -5 -4 -10 -10 -10 -5 0
-10 5 -10 10 0 6 5 10 10 10 6 0 10 -4 10 -10z m-52 -107 c6 -19 -25 -16 -32
3 -4 11 -1 14 11 12 9 -2 18 -9 21 -15z m97 8 c3 -5 1 -12 -5 -16 -13 -8 -50
3 -50 16 0 12 47 12 55 0z"/>
<path d="M365 3710 c17 -4 68 -9 115 -10 47 -1 77 -4 68 -7 -30 -8 -20 -31 28
-64 32 -22 53 -30 72 -26 30 6 74 -12 69 -27 -5 -16 83 -58 127 -60 27 -1 42
-7 50 -21 6 -11 12 -22 13 -24 3 -5 52 -13 80 -13 12 0 23 -7 25 -17 2 -11 21
-19 63 -26 44 -8 62 -16 69 -30 5 -11 30 -30 55 -43 42 -20 57 -22 141 -17 73
5 98 10 109 23 11 15 12 5 7 -68 -3 -47 -6 -110 -6 -142 l0 -56 -39 5 c-22 3
-51 3 -66 -1 -26 -7 -26 -7 -23 -99 l3 -92 72 1 72 0 3 -85 3 -86 52 -3 c35
-2 60 2 76 13 22 14 25 14 30 0 9 -21 34 -19 54 5 l18 20 16 -21 c13 -18 19
-19 37 -10 14 7 23 8 27 1 3 -5 33 -10 65 -10 48 0 61 4 74 21 l14 21 11 -21
c16 -29 28 -26 47 11 l17 33 15 -33 c9 -18 22 -31 30 -30 18 4 93 138 87 156
-3 8 9 12 43 12 26 0 58 6 72 13 34 17 38 59 8 87 -21 20 -22 22 -5 31 9 6 17
21 17 35 0 25 -2 26 -47 22 -27 -3 -57 -8 -67 -13 -17 -7 -18 -5 -11 21 10 38
8 68 -5 72 -15 5 -12 29 5 36 16 6 21 61 7 70 -5 3 -7 18 -4 34 3 22 -1 31
-20 39 -23 11 -23 12 -1 12 12 1 23 -5 26 -11 3 -9 12 -6 30 11 22 20 30 22
55 13 35 -12 178 2 199 20 7 6 31 8 53 5 23 -3 38 -1 34 4 -3 5 8 12 25 15 17
4 29 11 28 17 -1 5 14 14 33 19 19 5 46 17 60 27 31 21 146 76 180 86 26 8
102 40 132 56 10 5 30 9 45 9 16 0 54 9 86 20 32 11 81 23 109 26 27 4 55 12
62 19 7 7 48 18 92 23 53 6 -441 9 -1486 9 -861 1 -1551 -3 -1535 -7z m273
-17 c-10 -2 -28 -2 -40 0 -13 2 -5 4 17 4 22 1 32 -1 23 -4z m159 -145 c-3 -8
-6 -5 -6 6 -1 11 2 17 5 13 3 -3 4 -12 1 -19z m610 -74 c-3 -3 -12 -4 -19 -1
-8 3 -5 6 6 6 11 1 17 -2 13 -5z m443 -110 c0 -30 -4 -53 -9 -50 -8 6 -12 85
-4 99 10 16 13 4 13 -49z m153 -29 c4 -8 2 -17 -2 -20 -5 -2 -11 4 -14 15 -6
23 8 27 16 5z m-330 -121 c-4 -11 -9 -12 -19 -3 -20 16 -17 28 5 22 12 -3 17
-11 14 -19z m197 6 c0 -5 -4 -10 -10 -10 -5 0 -10 5 -10 10 0 6 5 10 10 10 6
0 10 -4 10 -10z m-310 -66 c0 -8 -7 -14 -15 -14 -17 0 -18 2 -9 24 7 18 24 12
24 -10z m371 -127 c-8 -8 -11 -4 -11 13 0 13 -7 31 -14 39 -13 14 -12 21 7 51
l22 35 3 -64 c2 -36 -2 -69 -7 -74z m-353 -59 c-4 -69 -28 -79 -28 -10 0 27 3
52 7 55 17 17 24 3 21 -45z m111 -32 c11 -13 10 -17 -4 -22 -25 -10 -32 6 -27
61 l6 50 6 -37 c4 -20 12 -44 19 -52z m151 62 c0 -20 -6 -23 -45 -25 -33 -1
-45 2 -45 13 0 15 9 17 48 14 12 -1 22 3 22 9 0 6 5 11 10 11 6 0 10 -10 10
-22z m334 -8 c25 -25 26 -30 12 -36 -9 -3 -27 -3 -41 0 -20 5 -25 13 -25 36 0
38 17 38 54 0z m-234 -49 c0 -22 -16 -36 -24 -22 -8 12 3 41 15 41 5 0 9 -9 9
-19z m-310 -61 c0 -5 -2 -10 -4 -10 -3 0 -8 5 -11 10 -3 6 -1 10 4 10 6 0 11
-4 11 -10z m360 -5 c-12 -15 -30 -12 -30 6 0 5 10 9 21 9 18 0 19 -2 9 -15z
m78 3 c-6 -18 -25 -20 -31 -3 -5 10 0 15 14 15 12 0 19 -5 17 -12z m-438 -44
c0 -14 -4 -23 -9 -20 -5 3 -7 15 -4 26 7 28 13 25 13 -6z m290 -46 c0 -4 -7
-5 -15 -2 -8 4 -15 16 -15 28 1 21 1 21 15 2 8 -11 15 -23 15 -28z"/>
<path d="M500 3653 c14 -9 32 -25 41 -35 9 -10 22 -18 30 -18 15 0 -11 25 -53
53 -35 22 -50 22 -18 0z"/>
<path d="M3523 3638 c-21 -10 -51 -18 -68 -18 -16 0 -57 -13 -91 -29 -34 -16
-75 -32 -92 -35 -16 -4 -47 -16 -68 -27 -21 -10 -47 -19 -58 -19 -10 0 -61
-13 -113 -30 -51 -16 -101 -30 -112 -30 -29 0 -138 -59 -144 -78 -2 -9 -8 -25
-12 -34 -6 -16 -1 -18 38 -18 24 0 66 9 91 21 32 14 57 18 77 14 38 -9 30 -19
-29 -41 -26 -9 -75 -30 -109 -46 -53 -25 -75 -29 -159 -32 -83 -2 -99 -5 -108
-21 -11 -19 -25 -34 -93 -97 -44 -42 -66 -99 -57 -147 8 -40 31 -40 119 -4 36
14 68 23 72 20 3 -4 4 -8 2 -10 -2 -2 -41 -27 -86 -57 -46 -29 -83 -58 -83
-63 0 -6 18 -7 45 -4 25 4 45 3 45 -1 0 -5 -14 -21 -30 -37 -17 -16 -37 -42
-44 -57 -12 -23 -12 -30 2 -49 11 -17 12 -26 4 -40 -13 -20 -3 -31 41 -48 23
-9 36 -7 67 9 41 21 78 28 50 10 -13 -9 -13 -11 0 -20 14 -9 68 -7 208 5 31 3
52 1 52 -5 0 -18 44 -11 130 22 77 30 93 41 174 122 91 90 166 138 166 106 0
-10 -30 -39 -170 -169 -63 -58 -115 -88 -217 -122 -81 -28 -201 -87 -263 -129
-24 -17 -79 -34 -190 -61 -33 -8 -98 -13 -162 -11 -97 2 -164 -8 -233 -34 -11
-4 -54 -29 -95 -55 -68 -43 -147 -83 -271 -137 -56 -24 -120 -80 -161 -141
-35 -52 -42 -57 77 54 30 28 75 59 102 69 108 43 216 97 295 149 46 29 97 57
113 61 17 4 95 9 175 11 80 2 161 7 180 10 62 11 152 46 259 101 57 30 109 54
117 54 8 0 22 4 32 9 31 16 102 34 109 28 3 -4 -3 -7 -15 -7 -11 0 -24 -4 -27
-10 -3 -5 -15 -10 -26 -10 -10 0 -27 -4 -37 -9 -9 -4 -42 -20 -72 -35 -30 -15
-73 -37 -96 -49 -119 -65 -199 -86 -399 -103 -154 -13 -176 -17 -233 -45 -35
-17 -61 -33 -59 -35 3 -3 32 4 66 16 71 24 120 25 195 6 54 -14 126 -7 151 15
12 12 48 11 40 0 -11 -19 16 -21 122 -11 59 6 155 13 211 16 113 5 177 24 185
55 3 10 12 19 21 19 12 0 14 7 10 28 -3 19 2 35 18 55 l24 29 99 -12 c55 -7
111 -19 123 -27 21 -13 26 -13 43 3 27 24 146 30 195 9 l34 -14 0 58 c0 41 -4
59 -12 58 -22 -1 -98 38 -98 50 0 31 69 43 94 17 15 -14 16 32 16 509 l0 524
-29 -1 c-16 -1 -46 -9 -68 -18z m3 -802 c-10 -6 -30 -20 -44 -31 -27 -20 -122
-58 -129 -51 -3 2 10 20 27 40 34 38 107 67 144 58 19 -5 19 -6 2 -16z"/>
<path d="M2143 2403 c9 -2 25 -2 35 0 9 3 1 5 -18 5 -19 0 -27 -2 -17 -5z"/>
<path d="M2018 2357 c-83 -45 -140 -86 -122 -86 6 -1 29 11 50 25 48 33 147
84 163 84 6 0 11 5 11 10 0 18 -24 10 -102 -33z"/>
<path d="M2828 2241 c-160 -6 -199 -14 -132 -27 95 -18 404 3 404 27 0 9 -8 9
-272 0z"/>
<path d="M2039 2223 c-13 -16 -12 -17 4 -4 9 7 17 15 17 17 0 8 -8 3 -21 -13z"/>
<path d="M1680 2194 c-15 -8 -19 -14 -9 -14 8 0 19 4 25 9 5 5 18 11 29 14
l20 5 -20 0 c-11 0 -31 -6 -45 -14z"/>
<path d="M3490 2190 c-49 -12 -297 -17 -345 -7 -29 6 -45 5 -58 -5 -28 -21 -1
-47 58 -57 l50 -8 -35 -6 c-19 -4 -66 -9 -105 -12 -38 -3 -92 -9 -120 -14 -27
-6 -80 -10 -116 -10 -61 -1 -67 -3 -78 -27 -10 -22 -9 -28 6 -40 21 -16 5 -18
-31 -4 -14 5 -26 16 -26 24 0 7 -16 21 -35 30 -29 14 -45 15 -92 7 -32 -5
-109 -9 -172 -10 -133 0 -162 -5 -213 -37 -31 -20 -51 -24 -111 -24 -60 0 -79
-4 -101 -21 -62 -49 -15 -70 160 -71 108 0 145 4 229 26 169 44 311 36 592
-31 108 -26 113 -26 132 -9 16 15 29 16 75 11 68 -9 134 1 118 17 -16 16 31
38 93 45 28 3 64 13 80 23 44 26 133 53 156 47 16 -4 19 0 19 28 0 24 -5 35
-17 38 -17 4 -17 5 0 6 14 1 17 10 17 51 l0 50 -47 -1 c-27 -1 -64 -5 -83 -9z
m-222 -77 c-10 -2 -28 -2 -40 0 -13 2 -5 4 17 4 22 1 32 -1 23 -4z m-402 -138
c36 -19 13 -19 -46 -1 -42 14 -43 15 -14 15 18 1 45 -6 60 -14z m79 -35 c3 -5
22 -10 41 -10 25 0 34 -4 34 -16 0 -11 -5 -14 -17 -9 -10 4 -27 10 -38 13 -11
3 -31 11 -45 19 -24 12 -24 13 -3 13 12 0 25 -4 28 -10z"/>
<path d="M2890 2165 c-30 -8 -67 -14 -82 -15 -21 0 -28 -5 -28 -19 0 -17 10
-20 75 -26 85 -8 105 -4 105 24 0 11 5 23 10 26 16 10 11 25 -7 24 -10 0 -43
-7 -73 -14z"/>
<path d="M1790 2103 c-31 -6 -96 -51 -136 -95 -17 -18 -61 -90 -97 -159 -79
-153 -95 -179 -113 -179 -19 0 -17 19 6 58 23 37 24 42 10 42 -5 0 -10 -7 -10
-15 0 -8 -5 -15 -11 -15 -13 0 -5 28 27 95 12 28 26 64 30 80 7 28 5 28 -37
-19 -76 -85 -130 -131 -149 -128 -27 4 -98 -72 -131 -143 -53 -111 -27 -244
56 -291 28 -15 33 -112 9 -162 -13 -27 -15 -50 -10 -99 6 -55 4 -64 -11 -69
-55 -18 -75 -30 -117 -70 -57 -56 -60 -86 -13 -114 17 -11 41 -20 52 -19 45 3
47 0 41 -38 -4 -25 1 -65 14 -113 11 -41 31 -114 44 -162 13 -48 33 -102 45
-121 35 -57 29 -81 -43 -155 -66 -70 -96 -117 -96 -152 0 -20 3 -20 454 -20
250 0 457 3 460 8 7 11 -19 111 -40 157 -17 34 -26 42 -69 54 -28 7 -77 16
-109 20 -34 3 -61 11 -64 19 -5 16 56 15 133 -3 32 -8 61 -12 63 -10 6 5 -3
23 -24 52 -15 21 -15 23 18 36 63 28 71 39 73 103 1 33 15 107 29 165 l28 107
39 6 c22 4 46 3 52 -1 13 -9 120 -14 245 -13 74 1 84 -1 89 -18 3 -15 14 -19
44 -19 22 0 45 -5 52 -12 14 -14 57 -15 57 -1 0 6 -7 10 -16 10 -8 0 -13 4
-10 9 8 13 47 1 53 -15 12 -31 83 0 83 37 0 10 4 19 9 19 11 0 44 -45 54 -72
9 -25 40 -24 32 1 -8 26 25 38 42 15 12 -17 43 -13 43 6 0 5 14 10 30 10 32 0
37 -9 18 -28 -19 -19 -1 -26 39 -14 23 7 42 8 54 2 23 -13 39 -13 39 -1 0 5
-16 15 -35 22 -43 16 -44 25 -2 43 31 14 31 14 7 15 -15 1 -31 -4 -37 -10 -16
-16 -184 20 -190 41 -2 8 -11 29 -18 47 -12 27 -12 32 2 37 9 4 31 -3 50 -14
19 -11 38 -20 42 -20 5 0 12 20 15 45 4 24 14 48 22 53 8 4 18 21 22 38 6 21
20 35 52 51 56 27 70 28 70 4 0 -16 7 -19 48 -16 26 1 64 10 84 19 49 21 60
20 91 -8 17 -15 24 -31 21 -43 -5 -18 1 -20 91 -20 58 0 101 -5 108 -12 6 -6
15 -11 19 -11 4 0 8 77 8 171 l0 171 -850 -4 c-468 -1 -850 -1 -850 2 0 3 6
14 13 25 69 100 -31 245 -168 245 -75 0 -123 -19 -161 -64 -30 -35 -34 -37
-34 -17 0 12 7 38 16 59 9 20 17 67 19 104 3 37 9 76 14 86 6 11 6 23 1 28 -4
5 0 54 9 112 20 115 31 132 118 188 29 19 57 43 63 54 6 11 9 19 8 19 -2 -1
-14 -4 -28 -6z m-155 -913 c3 -5 1 -10 -4 -10 -6 0 -11 5 -11 10 0 6 2 10 4
10 3 0 8 -4 11 -10z m-3 -82 c-10 -22 -11 -21 -11 12 -1 26 2 31 11 22 8 -8 8
-17 0 -34z m361 -35 c-7 -2 -19 -2 -25 0 -7 3 -2 5 12 5 14 0 19 -2 13 -5z
m583 -53 c8 0 14 -4 14 -10 0 -11 -49 -14 -74 -4 -29 11 -17 27 15 20 17 -3
38 -6 45 -6z m-380 -24 c16 -8 56 -16 90 -18 35 -3 71 -12 84 -21 24 -16 21
-17 -70 -19 -178 -3 -212 1 -243 30 l-28 27 23 6 c41 12 114 9 144 -5z m589
-67 c15 -7 9 -8 -22 -4 -37 4 -46 1 -72 -24 -22 -21 -36 -28 -53 -23 l-22 5
22 10 c13 6 21 16 18 23 -2 7 -2 15 1 18 10 9 106 6 128 -5z m-530 -39 c-3 -5
-10 -10 -16 -10 -5 0 -9 5 -9 10 0 6 7 10 16 10 8 0 12 -4 9 -10z m135 -5 c0
-9 -6 -12 -15 -9 -8 4 -15 10 -15 15 0 5 7 9 15 9 8 0 15 -7 15 -15z m88 -3
c2 -7 -6 -12 -17 -12 -21 0 -27 11 -14 24 9 9 26 2 31 -12z m-348 -38 c0 -13
-4 -24 -10 -24 -14 0 -31 37 -24 55 9 22 34 0 34 -31z m70 -20 c0 -8 -4 -12
-10 -9 -5 3 -10 10 -10 16 0 5 5 9 10 9 6 0 10 -7 10 -16z m453 -29 c8 -20 -5
-26 -42 -19 -32 7 -32 7 -9 19 31 18 45 18 51 0z m102 -4 c0 -18 -56 -34 -70
-20 -7 7 -4 15 10 25 24 18 60 15 60 -5z m-1286 -165 c14 -17 8 -22 -40 -31
-44 -8 -58 7 -27 29 28 20 52 20 67 2z m54 -137 c12 -45 -24 -72 -55 -42 -16
17 -17 20 -2 41 19 28 50 29 57 1z m365 -57 c2 -15 -2 -22 -12 -22 -11 0 -16
9 -16 26 0 31 23 28 28 -4z"/>
<path d="M2348 1907 c-29 -11 -37 -26 -15 -28 6 -1 95 -1 197 1 179 2 189 1
304 -29 65 -17 127 -31 137 -31 10 0 19 -6 19 -14 0 -15 23 -22 105 -31 27 -3
54 -10 59 -15 13 -13 113 -13 121 0 8 13 -28 27 -91 35 -70 9 -133 25 -179 45
-22 10 -67 23 -100 30 -33 6 -99 20 -146 31 -98 21 -362 25 -411 6z"/>
<path d="M2235 1803 c-74 -5 -150 -25 -204 -54 l-54 -29 124 0 c195 1 333 26
321 59 -3 9 -10 19 -16 23 -10 7 -82 7 -171 1z"/>
<path d="M2553 1791 c-7 -11 -23 -21 -35 -24 -21 -4 -20 -4 4 -6 37 -2 80 16
75 32 -6 20 -31 19 -44 -2z"/>
<path d="M2455 1770 c-3 -5 3 -10 14 -10 12 0 21 5 21 10 0 6 -6 10 -14 10 -8
0 -18 -4 -21 -10z"/>
<path d="M3539 1741 c-103 -28 -101 -26 -97 -68 2 -24 -2 -42 -11 -49 -8 -6
-12 -18 -8 -27 5 -12 24 -15 101 -14 l96 0 0 89 c0 48 -3 88 -7 87 -5 0 -38
-8 -74 -18z"/>
<path d="M2601 1676 c-7 -9 -21 -16 -30 -16 -9 0 -23 -5 -31 -11 -11 -7 1 -10
45 -8 33 1 71 1 85 0 23 -2 24 -3 5 -11 -32 -14 -129 -11 -175 5 -25 9 -47 12
-54 6 -19 -15 -103 -31 -160 -31 -64 0 -86 -7 -86 -26 0 -10 15 -14 53 -15 28
-1 99 -3 157 -5 58 -2 121 -4 140 -4 73 -2 103 1 138 16 20 8 70 17 110 20 66
4 74 3 68 -12 -6 -14 10 -16 163 -13 186 4 194 7 228 74 9 16 21 33 27 37 22
15 -46 7 -102 -11 -124 -42 -293 -63 -405 -51 -77 9 -85 13 -67 35 17 21 9 27
-48 33 -36 3 -51 0 -61 -12z"/>
<path d="M3305 1657 c-11 -6 -33 -23 -48 -39 -32 -31 -23 -42 29 -36 24 2 29
9 36 42 10 46 9 48 -17 33z"/>
<path d="M3573 1463 c9 -2 25 -2 35 0 9 3 1 5 -18 5 -19 0 -27 -2 -17 -5z"/>
<path d="M474 1428 c-4 -6 -21 -8 -42 -5 -38 7 -72 -6 -72 -27 0 -22 -47 -58
-67 -52 -24 7 -36 -2 -48 -39 -9 -24 -16 -29 -48 -31 -27 -2 -37 1 -37 12 0 8
-10 14 -25 14 -36 0 -73 20 -78 42 -4 14 -12 19 -29 16 l-23 -3 -3 -197 c-2
-175 -1 -197 13 -192 20 8 21 -45 0 -72 -22 -29 -22 -344 0 -344 8 0 15 -4 15
-9 0 -5 -7 -11 -15 -15 -13 -4 -15 -37 -15 -213 l1 -208 30 35 c35 41 51 95
48 158 -2 27 1 47 8 49 27 9 44 -126 22 -184 -5 -15 -22 -40 -36 -55 -55 -57
-25 -65 247 -64 l175 1 0 32 c0 40 27 73 60 73 18 0 25 5 25 19 0 22 46 56 55
40 4 -5 1 -16 -5 -24 -18 -22 8 -27 73 -16 4 0 7 7 7 14 0 8 16 31 36 51 35
36 35 38 19 62 -9 14 -27 29 -41 34 -13 5 -24 12 -24 16 0 3 27 33 60 66 33
32 60 63 60 68 0 5 15 28 34 53 55 72 69 104 40 93 -19 -7 -49 55 -32 65 17
11 1 39 -21 39 -32 0 -51 11 -51 31 0 13 10 20 36 25 35 6 104 63 104 85 0 6
-7 3 -16 -5 -19 -20 -54 -21 -54 -2 0 20 39 46 67 46 22 0 40 16 29 28 -19 19
-72 9 -110 -21 -56 -44 -32 -5 33 54 28 26 51 49 51 53 0 8 -40 -13 -58 -31
-16 -16 -48 -17 -57 -2 -4 6 1 16 11 23 16 12 14 14 -19 20 -21 4 -37 10 -37
14 0 4 -13 22 -29 39 l-29 32 34 53 c38 60 41 71 17 66 -9 -2 -26 -21 -38 -43
-13 -22 -34 -46 -49 -53 -14 -7 -26 -19 -26 -26 0 -18 -47 -59 -59 -51 -6 3
-20 -1 -32 -9 -33 -23 -85 7 -101 57 -6 20 -8 40 -4 44 3 4 46 7 94 8 124 1
181 29 185 92 2 25 -1 28 -28 28 -27 0 -31 4 -35 35 -4 25 -14 40 -40 57 -19
12 -42 29 -51 38 -20 19 -29 19 -29 1 0 -16 -27 -29 -42 -20 -5 3 -7 12 -4 19
6 16 -21 28 -30 13z m76 -108 c-12 -22 -30 -18 -30 6 0 8 9 14 20 14 18 0 19
-3 10 -20z m-30 -28 c0 -13 -28 -47 -34 -42 -10 10 6 50 20 50 8 0 14 -4 14
-8z m-410 -27 c11 -13 7 -15 -24 -15 -35 0 -49 13 -23 23 22 9 34 7 47 -8z
m96 -42 c-7 -7 -26 7 -26 19 0 6 6 6 15 -2 9 -7 13 -15 11 -17z m435 -13 c-24
-21 -43 -25 -54 -13 -13 12 16 33 47 33 l31 -1 -24 -19z m-285 -85 c18 -13 18
-14 1 -15 -10 0 -25 7 -33 15 -21 21 5 21 32 0z m-80 -242 c3 -10 10 -26 15
-35 12 -24 -5 -31 -45 -18 -41 13 -54 39 -30 57 25 18 54 16 60 -4z m233 -99
c-43 -52 -180 -118 -179 -86 0 7 168 101 184 102 5 0 2 -7 -5 -16z m91 -128
c0 -16 -21 -36 -37 -36 -17 0 -17 47 0 53 17 6 37 -3 37 -17z m-530 -97 c0 -5
-4 -9 -10 -9 -5 0 -10 7 -10 16 0 8 5 12 10 9 6 -3 10 -10 10 -16z m447 -28
c11 -14 19 -30 15 -35 -3 -5 -4 -27 -4 -48 2 -41 -15 -78 -35 -78 -8 0 -13 13
-13 33 0 42 -29 71 -96 96 -55 21 -62 32 -38 55 14 14 28 16 83 10 55 -5 70
-11 88 -33z m86 -15 c3 -8 3 -17 0 -20 -7 -7 -33 13 -33 25 0 15 27 10 33 -5z
m117 -46 c0 -5 -4 -10 -10 -10 -5 0 -10 5 -10 10 0 6 5 10 10 10 6 0 10 -4 10
-10z m-320 -4 c0 -3 -4 -8 -10 -11 -5 -3 -10 -1 -10 4 0 6 5 11 10 11 6 0 10
-2 10 -4z m210 -60 c0 -17 -38 -66 -51 -66 -6 0 -9 8 -7 18 1 9 -1 22 -4 28
-4 6 0 20 10 32 12 15 21 18 34 11 10 -5 18 -16 18 -23z m-252 -112 c26 -18
29 -59 6 -68 -13 -5 -15 -1 -12 19 6 29 7 29 -27 13 -18 -8 -24 -17 -19 -30 9
-28 -26 -22 -63 11 -18 16 -33 33 -33 39 0 32 109 44 148 16z m392 3 c0 -18
-28 -43 -58 -52 -22 -6 -23 -5 -17 16 13 40 75 70 75 36z m-250 -38 c-12 -21
-30 -17 -30 6 0 14 20 25 33 18 4 -2 2 -13 -3 -24z m66 -10 c-6 -31 -40 -68
-64 -69 -19 0 -7 33 26 70 34 38 46 38 38 -1z m-125 -87 c-7 -2 -23 -15 -34
-28 -11 -13 -26 -24 -33 -24 -7 0 -14 -6 -17 -12 -2 -7 -7 -10 -11 -6 -4 3 16
25 45 47 28 23 54 39 58 35 3 -4 0 -9 -8 -12z m-151 -36 c0 -8 -4 -18 -10 -21
-5 -3 -10 3 -10 14 0 12 5 21 10 21 6 0 10 -6 10 -14z"/>
<path d="M250 286 c0 -2 7 -9 15 -16 12 -10 15 -10 15 4 0 9 -7 16 -15 16 -8
0 -15 -2 -15 -4z"/>
<path d="M3575 1419 c-16 -5 -40 -7 -53 -4 -21 5 -23 3 -20 -22 3 -27 6 -28
61 -31 l57 -3 0 36 c0 38 0 38 -45 24z"/>
<path d="M3451 1384 c0 -11 3 -14 6 -6 3 7 2 16 -1 19 -3 4 -6 -2 -5 -13z"/>
<path d="M3315 1374 l-30 -14 39 3 c22 1 41 8 44 15 5 15 -15 14 -53 -4z"/>
<path d="M2383 1365 c-13 -9 -42 -20 -65 -25 -29 -6 13 -7 127 -4 94 4 316 8
494 9 209 2 327 7 334 14 6 6 9 12 6 14 -2 1 -58 0 -124 -3 -162 -7 -505 -5
-640 4 -93 6 -114 4 -132 -9z"/>
<path d="M961 1061 c-17 -11 -20 -83 -3 -89 7 -2 12 7 12 25 0 16 5 34 12 41
16 16 -2 34 -21 23z"/>
<path d="M3485 915 c-14 -13 -25 -29 -25 -35 0 -6 -12 -9 -27 -8 -22 2 -28 -1
-28 -17 0 -17 6 -20 42 -17 32 3 42 0 38 -10 -9 -22 -55 -39 -76 -28 -30 17
-41 12 -37 -17 2 -20 9 -28 22 -28 12 0 22 -12 30 -35 12 -37 15 -38 83 -24
35 7 49 35 30 64 -9 15 -7 22 14 39 23 20 23 20 3 21 -11 0 -28 8 -38 18 -15
18 -15 21 5 46 21 26 20 56 -1 56 -6 0 -22 -11 -35 -25z"/>
<path d="M3577 914 c-9 -10 15 -54 30 -54 16 0 17 14 3 41 -11 19 -22 24 -33
13z"/>
<path d="M3297 773 c-4 -3 -7 -15 -7 -25 0 -10 -6 -18 -12 -19 -7 0 14 -9 47
-20 34 -10 63 -15 68 -10 10 10 -25 33 -44 29 -7 -2 -18 7 -24 20 -16 29 -20
33 -28 25z"/>
<path d="M2140 719 c0 -5 5 -7 10 -4 6 3 10 8 10 11 0 2 -4 4 -10 4 -5 0 -10
-5 -10 -11z"/>
<path d="M2380 697 c0 -4 6 -17 13 -28 10 -17 10 -23 0 -26 -14 -5 -18 -33 -5
-33 12 1 77 58 72 63 -3 3 -19 7 -35 9 -17 2 -33 8 -37 13 -4 6 -8 7 -8 2z"/>
<path d="M3576 681 c-51 -8 -55 -23 -11 -47 31 -17 37 -17 45 -4 8 13 15 63 8
59 -2 -1 -21 -5 -42 -8z"/>
<path d="M2210 676 c0 -14 29 -56 33 -48 10 14 -4 52 -19 52 -8 0 -14 -2 -14
-4z"/>
<path d="M900 660 c8 -5 20 -10 25 -10 6 0 3 5 -5 10 -8 5 -19 10 -25 10 -5 0
-3 -5 5 -10z"/>
<path d="M3160 630 c0 -20 5 -30 15 -30 8 0 15 9 15 20 0 10 8 24 18 29 14 9
11 10 -15 11 -30 0 -33 -3 -33 -30z"/>
<path d="M2128 633 c7 -3 16 -2 19 1 4 3 -2 6 -13 5 -11 0 -14 -3 -6 -6z"/>
<path d="M2498 633 c7 -3 16 -2 19 1 4 3 -2 6 -13 5 -11 0 -14 -3 -6 -6z"/>
<path d="M2960 630 c0 -5 4 -10 9 -10 6 0 13 5 16 10 3 6 -1 10 -9 10 -9 0
-16 -4 -16 -10z"/>
<path d="M3237 634 c-13 -13 -7 -22 18 -28 14 -4 25 -13 25 -21 0 -9 9 -15 22
-15 17 0 19 -3 10 -12 -7 -7 -12 -20 -12 -29 0 -10 -7 -25 -16 -33 -14 -15
-13 -16 13 -17 28 -1 66 1 70 5 1 1 5 21 9 45 7 42 6 43 -14 30 -12 -7 -25
-10 -29 -6 -4 5 -1 12 6 16 22 14 8 45 -24 52 -17 4 -39 10 -50 14 -11 3 -24
3 -28 -1z"/>
<path d="M2596 621 c-3 -5 1 -12 9 -15 12 -4 13 -10 6 -25 -6 -10 -7 -21 -4
-25 22 -22 62 36 42 61 -13 15 -45 17 -53 4z"/>
<path d="M3026 621 c-3 -5 1 -11 9 -15 15 -6 29 7 18 18 -9 9 -21 8 -27 -3z"/>
<path d="M2155 600 c-3 -5 -1 -10 4 -10 6 0 11 5 11 10 0 6 -2 10 -4 10 -3 0
-8 -4 -11 -10z"/>
<path d="M2550 585 c-8 -9 -8 -15 -2 -15 12 0 26 19 19 26 -2 2 -10 -2 -17
-11z"/>
<path d="M2808 593 c6 -2 12 -11 12 -18 0 -21 19 -28 34 -12 13 12 11 16 -10
26 -14 6 -30 11 -37 10 -9 0 -9 -2 1 -6z"/>
<path d="M3595 579 c-5 -14 -1 -27 9 -37 15 -15 16 -13 16 21 0 40 -15 50 -25
16z"/>
<path d="M2741 574 c-12 -14 -12 -17 0 -25 22 -14 27 -11 21 16 -2 14 -5 25
-6 25 0 -1 -7 -8 -15 -16z"/>
<path d="M2978 548 c-2 -19 -8 -22 -33 -20 -16 2 -35 8 -41 13 -13 11 -26 -12
-16 -27 13 -18 94 -9 109 11 15 21 13 37 -4 42 -6 2 -13 -6 -15 -19z"/>
<path d="M3145 560 c-3 -5 -19 -10 -35 -10 -16 0 -32 -5 -35 -10 -5 -8 -11 -7
-21 1 -10 8 -14 8 -14 1 0 -20 39 -35 55 -22 8 6 23 9 34 5 14 -4 23 0 30 14
6 11 11 22 11 25 0 10 -18 7 -25 -4z"/>
<path d="M3549 528 c-1 -13 0 -33 1 -45 1 -13 -7 -26 -19 -32 -27 -15 -31 -14
-31 9 0 23 -3 24 -30 8 -17 -11 -22 -10 -29 0 -5 9 -14 10 -32 3 -13 -5 -18
-10 -11 -10 6 -1 12 -8 12 -16 0 -11 -7 -13 -28 -9 -42 8 -60 -18 -33 -45 19
-19 24 -20 54 -8 22 10 40 11 60 5 30 -11 35 -25 12 -34 -22 -9 -18 -22 8 -30
12 -3 30 -15 40 -25 17 -18 17 -19 -13 -19 -35 0 -40 -15 -8 -26 21 -6 21 -7
-7 -21 -18 -10 -41 -13 -66 -9 -20 3 -45 3 -53 0 -23 -9 -20 -34 4 -34 17 0
19 -3 10 -19 -8 -16 -5 -21 22 -30 17 -6 39 -11 49 -11 11 0 19 -6 19 -14 0
-20 58 -66 75 -60 14 6 10 34 -6 34 -5 0 -9 5 -9 10 0 6 10 10 21 10 17 0 19
3 10 14 -14 17 -4 46 15 46 8 0 19 12 24 26 14 36 13 43 -10 37 -16 -4 -20 0
-20 20 0 14 -6 28 -12 30 -10 4 -10 6 0 6 24 2 12 17 -24 30 -41 15 -40 38 2
32 39 -4 41 -6 49 -41 12 -56 24 -30 23 50 l-1 79 -29 -20 c-19 -14 -35 -18
-50 -13 l-22 7 25 20 c13 11 36 24 52 29 15 6 27 16 27 24 0 10 -9 14 -27 12
-25 -3 -28 0 -25 25 2 15 -1 27 -7 27 -6 0 -11 -10 -12 -22z m9 -333 c9 -9 -8
-19 -33 -20 -14 0 -24 -4 -23 -10 2 -5 9 -9 16 -9 6 1 12 -9 12 -22 0 -13 -3
-24 -6 -24 -12 0 -114 65 -114 72 0 5 8 8 18 8 9 0 28 6 42 13 23 12 73 8 88
-8z"/>
<path d="M3205 520 c-18 -20 -11 -25 19 -14 17 6 23 34 8 34 -5 0 -17 -9 -27
-20z"/>
<path d="M3500 530 c0 -5 10 -10 23 -10 18 0 19 2 7 10 -19 13 -30 13 -30 0z"/>
<path d="M2560 510 c0 -13 7 -20 19 -20 30 0 33 16 6 28 -22 10 -25 9 -25 -8z"/>
<path d="M2705 520 c4 -6 11 -8 16 -5 14 9 11 15 -7 15 -8 0 -12 -5 -9 -10z"/>
<path d="M2478 503 c7 -3 16 -2 19 1 4 3 -2 6 -13 5 -11 0 -14 -3 -6 -6z"/>
<path d="M2828 496 c-10 -7 -18 -18 -18 -24 0 -6 -6 -12 -12 -15 -10 -3 -9 -9
3 -23 28 -34 30 -43 9 -37 -28 7 -17 -19 14 -33 19 -9 27 -7 50 13 26 22 26
23 5 23 -17 0 -20 4 -16 20 3 14 -1 25 -13 33 -14 8 -16 15 -9 24 17 19 6 33
-13 19z"/>
<path d="M2624 425 c10 -7 15 -18 11 -24 -10 -17 21 -13 35 4 17 21 4 35 -33
35 -30 -1 -31 -2 -13 -15z"/>
<path d="M2270 390 c0 -5 7 -7 15 -4 8 4 15 8 15 10 0 2 -7 4 -15 4 -8 0 -15
-4 -15 -10z"/>
<path d="M2332 387 c15 -10 15 -12 -5 -24 -12 -7 -37 -19 -54 -28 -26 -12 -33
-21 -33 -45 0 -34 5 -37 26 -15 21 21 34 19 34 -5 0 -35 43 -43 100 -18 28 12
50 28 50 35 0 7 -4 13 -10 13 -5 0 -10 4 -10 9 0 5 8 7 19 4 11 -3 21 2 24 11
4 10 1 16 -7 16 -7 0 -32 14 -54 30 -24 17 -54 30 -69 29 -24 0 -26 -2 -11
-12z m-2 -71 c0 -9 -7 -12 -20 -9 -11 3 -20 9 -20 14 0 5 9 9 20 9 11 0 20 -6
20 -14z"/>
<path d="M2540 391 c0 -5 11 -16 25 -25 23 -15 26 -15 31 -1 8 19 6 20 -28 29
-16 3 -28 2 -28 -3z"/>
<path d="M3004 379 c-8 -13 25 -24 37 -12 7 7 3 12 -10 16 -12 3 -24 1 -27 -4z"/>
<path d="M3280 384 c0 -17 18 -36 30 -32 7 2 4 10 -9 22 -12 11 -21 15 -21 10z"/>
<path d="M3177 366 c-3 -8 0 -17 7 -19 18 -7 40 8 32 22 -10 16 -33 14 -39 -3z"/>
<path d="M3342 361 c-11 -7 -10 -10 3 -15 23 -9 25 -8 25 9 0 17 -9 19 -28 6z"/>
<path d="M3080 347 c0 -7 -16 -19 -35 -26 -19 -7 -35 -16 -35 -21 0 -5 6 -7
14 -4 8 3 19 -3 26 -15 9 -19 8 -21 -14 -21 -13 0 -26 7 -30 15 -6 17 -36 21
-36 5 0 -5 4 -10 10 -10 5 0 7 -7 4 -15 -4 -10 -11 -12 -18 -7 -17 13 -56 21
-56 12 0 -5 5 -12 10 -15 17 -11 11 -25 -11 -25 -25 0 -49 -22 -49 -45 0 -9
-9 -19 -20 -22 -11 -3 -20 -13 -20 -23 0 -32 36 -11 54 31 10 21 24 39 31 39
7 0 20 3 29 6 11 4 16 0 16 -14 0 -12 5 -24 10 -27 6 -3 10 -17 10 -30 0 -18
-7 -25 -30 -30 -32 -7 -37 -20 -16 -47 16 -22 36 -23 62 -3 18 13 16 14 -21
15 -26 1 -34 4 -22 8 29 12 59 70 52 102 -7 32 6 46 57 55 28 5 37 12 41 31 2
14 0 27 -5 30 -5 3 -6 19 -3 35 4 16 4 29 1 29 -3 0 -6 -6 -6 -13z"/>
<path d="M3128 353 c7 -3 16 -2 19 1 4 3 -2 6 -13 5 -11 0 -14 -3 -6 -6z"/>
<path d="M2545 340 c-4 -6 -1 -18 6 -26 10 -13 10 -17 -2 -25 -12 -7 -11 -9 3
-9 22 0 27 10 21 43 -5 28 -17 35 -28 17z"/>
<path d="M1010 330 c0 -5 5 -10 11 -10 5 0 7 5 4 10 -3 6 -8 10 -11 10 -2 0
-4 -4 -4 -10z"/>
<path d="M2950 325 c0 -9 6 -12 15 -9 8 4 15 10 15 15 0 5 -7 9 -15 9 -8 0
-15 -7 -15 -15z"/>
<path d="M3242 319 c2 -7 16 -13 31 -15 15 -1 42 -12 60 -23 l32 -19 2 28 c2
32 -14 40 -85 40 -28 0 -42 -4 -40 -11z"/>
<path d="M2788 307 c-7 -8 -20 -17 -28 -20 -8 -4 3 -4 25 0 47 7 49 8 40 22
-8 15 -21 14 -37 -2z"/>
<path d="M2850 294 c-9 -21 -8 -31 4 -42 13 -14 16 -12 27 11 10 21 9 29 -5
42 -15 15 -17 14 -26 -11z"/>
<path d="M2475 280 c3 -5 13 -10 21 -10 8 0 14 5 14 10 0 6 -9 10 -21 10 -11
0 -17 -4 -14 -10z"/>
<path d="M2625 281 c-6 -5 -17 -11 -25 -14 -8 -2 -2 -3 15 -1 32 5 60 24 34
24 -8 0 -19 -4 -24 -9z"/>
<path d="M2675 277 c-15 -12 -15 -14 -2 -26 12 -9 21 -10 36 -1 26 13 26 17 2
29 -13 7 -23 6 -36 -2z"/>
<path d="M3179 249 c-11 -7 -9 -9 9 -9 30 0 28 -16 -3 -24 -31 -8 -53 -49 -37
-69 9 -10 8 -18 -2 -33 -9 -12 -11 -27 -5 -41 9 -24 24 -30 34 -13 8 14 41 13
65 -2 10 -7 22 -9 25 -6 12 12 -16 48 -43 54 -64 16 -72 60 -16 93 19 12 34
26 32 33 -6 17 -43 28 -59 17z"/>
<path d="M790 231 c0 -6 5 -11 10 -11 20 0 10 -39 -15 -58 -14 -11 -54 -26
-90 -33 -69 -13 -81 -25 -40 -35 14 -3 25 -12 25 -19 0 -17 23 -25 41 -14 10
6 10 9 2 9 -31 0 -8 27 42 50 46 21 54 29 60 58 3 19 5 35 3 36 -2 1 -11 8
-20 15 -12 9 -18 10 -18 2z"/>
<path d="M2505 230 c-3 -5 1 -10 9 -10 9 0 16 5 16 10 0 6 -4 10 -9 10 -6 0
-13 -4 -16 -10z"/>
<path d="M2634 229 c-3 -6 -1 -15 6 -19 17 -11 5 -41 -20 -47 -21 -6 -26 -18
-10 -28 15 -9 122 44 117 58 -2 6 -13 11 -25 9 -13 -2 -25 5 -32 17 -12 23
-25 27 -36 10z"/>
<path d="M3280 226 c0 -8 4 -17 9 -20 10 -7 23 19 14 28 -11 11 -23 6 -23 -8z"/>
<path d="M2439 214 c-12 -14 -11 -16 5 -13 11 2 21 10 24 17 5 17 -13 15 -29
-4z"/>
<path d="M2785 214 c-18 -18 -16 -35 5 -42 7 -3 10 0 6 6 -4 7 -2 21 4 32 13
24 7 26 -15 4z"/>
<path d="M2354 174 c-7 -28 13 -58 32 -46 6 4 15 22 19 40 6 30 5 32 -19 32
-19 0 -27 -6 -32 -26z"/>
<path d="M2905 140 c-3 -5 -1 -10 4 -10 6 0 11 5 11 10 0 6 -2 10 -4 10 -3 0
-8 -4 -11 -10z"/>
<path d="M820 115 c0 -8 5 -15 10 -15 6 0 10 7 10 15 0 8 -4 15 -10 15 -5 0
-10 -7 -10 -15z"/>
<path d="M3010 115 c-7 -9 -10 -18 -7 -22 8 -7 37 15 37 28 0 14 -16 11 -30
-6z"/>
<path d="M530 96 c0 -9 5 -16 10 -16 6 0 10 4 10 9 0 6 -4 13 -10 16 -5 3 -10
-1 -10 -9z"/>
<path d="M2610 90 c0 -5 5 -10 10 -10 6 0 10 5 10 10 0 6 -4 10 -10 10 -5 0
-10 -4 -10 -10z"/>
<path d="M2658 76 c-10 -7 -18 -16 -18 -20 0 -11 35 -7 48 6 27 27 2 39 -30
14z"/>
<path d="M773 73 c-13 -2 -23 -9 -23 -14 0 -14 24 -11 46 6 19 15 16 16 -23 8z"/>
<path d="M2273 73 c-20 -8 -15 -23 7 -23 11 0 20 7 20 15 0 15 -6 17 -27 8z"/>
<path d="M2840 70 c-21 -13 0 -31 28 -24 12 4 22 13 22 20 0 16 -28 18 -50 4z"/>
<path d="M588 63 c7 -3 16 -2 19 1 4 3 -2 6 -13 5 -11 0 -14 -3 -6 -6z"/>
<path d="M2360 59 c0 -5 5 -7 10 -4 6 3 10 8 10 11 0 2 -4 4 -10 4 -5 0 -10
-5 -10 -11z"/>
<path d="M3080 61 c0 -5 7 -11 15 -15 9 -3 15 0 15 9 0 8 -7 15 -15 15 -8 0
-15 -4 -15 -9z"/>
<path d="M3468 63 c7 -3 16 -2 19 1 4 3 -2 6 -13 5 -11 0 -14 -3 -6 -6z"/>
</g>
</svg>
